<svg xmlns="http://www.w3.org/2000/svg" viewBox="0 0 800 533" width="800" height="533">
  <defs>
    <linearGradient id="sky4" x1="0" y1="0" x2="0" y2="1">
      <stop offset="0%" stop-color="#1e90ff"/>
      <stop offset="100%" stop-color="#87CEEB"/>
    </linearGradient>
    <linearGradient id="stucco" x1="0" y1="0" x2="1" y2="1">
      <stop offset="0%" stop-color="#F5DEB3"/>
      <stop offset="100%" stop-color="#E8C88A"/>
    </linearGradient>
    <linearGradient id="lawn4" x1="0" y1="0" x2="0" y2="1">
      <stop offset="0%" stop-color="#7ab840"/>
      <stop offset="100%" stop-color="#5a9030"/>
    </linearGradient>
  </defs>

  <!-- Sky -->
  <rect width="800" height="533" fill="url(#sky4)"/>

  <!-- Sun -->
  <circle cx="100" cy="80" r="55" fill="#FFE566" opacity="0.9"/>

  <!-- Light clouds -->
  <ellipse cx="350" cy="60" rx="80" ry="28" fill="white" opacity="0.85"/>
  <ellipse cx="400" cy="48" rx="60" ry="25" fill="white" opacity="0.85"/>
  <ellipse cx="310" cy="55" rx="50" ry="20" fill="white" opacity="0.85"/>
  <ellipse cx="620" cy="90" rx="65" ry="22" fill="white" opacity="0.75"/>
  <ellipse cx="665" cy="78" rx="48" ry="20" fill="white" opacity="0.75"/>

  <!-- Ground / lawn -->
  <rect x="0" y="400" width="800" height="133" fill="url(#lawn4)"/>

  <!-- Stone/concrete driveway -->
  <polygon points="330,400 470,400 520,533 280,533" fill="#c8b89a"/>

  <!-- Main house body (stucco) -->
  <rect x="90" y="200" width="620" height="205" fill="url(#stucco)"/>

  <!-- Arch entry arch -->
  <rect x="348" y="270" width="104" height="135" fill="#D4A870" rx="52 52 0 0"/>
  <rect x="356" y="340" width="88" height="65" fill="#D4A870"/>

  <!-- Front door inside arch -->
  <rect x="362" y="305" width="76" height="100" fill="#6B3A2A" rx="38 38 0 0"/>
  <!-- Iron detail on door -->
  <rect x="378" y="310" width="22" height="3" fill="#4a2a1a"/>
  <rect x="400" y="310" width="22" height="3" fill="#4a2a1a"/>
  <circle cx="400" cy="370" r="5" fill="#B8860B"/>
  <!-- Door knocker -->
  <circle cx="400" cy="355" r="7" fill="none" stroke="#B8860B" stroke-width="2.5"/>

  <!-- Clay tile roof - left wing -->
  <polygon points="90,205 300,125 300,205" fill="#C2512A"/>
  <!-- Tile rows -->
  <line x1="90" y1="195" x2="300" y2="138" stroke="#a84020" stroke-width="2"/>
  <line x1="90" y1="185" x2="300" y2="151" stroke="#a84020" stroke-width="2"/>
  <line x1="90" y1="175" x2="300" y2="163" stroke="#a84020" stroke-width="2"/>
  <line x1="132" y1="205" x2="300" y2="125" stroke="#a84020" stroke-width="1.5"/>
  <line x1="174" y1="205" x2="300" y2="125" stroke="#a84020" stroke-width="1.5"/>
  <line x1="216" y1="205" x2="300" y2="125" stroke="#a84020" stroke-width="1.5"/>
  <line x1="258" y1="205" x2="300" y2="125" stroke="#a84020" stroke-width="1.5"/>

  <!-- Clay tile roof - right wing -->
  <polygon points="500,125 710,205 500,205" fill="#C2512A"/>
  <line x1="500" y1="138" x2="710" y2="195" stroke="#a84020" stroke-width="2"/>
  <line x1="500" y1="151" x2="710" y2="185" stroke="#a84020" stroke-width="2"/>
  <line x1="500" y1="163" x2="710" y2="175" stroke="#a84020" stroke-width="2"/>
  <line x1="500" y1="125" x2="542" y2="205" stroke="#a84020" stroke-width="1.5"/>
  <line x1="500" y1="125" x2="584" y2="205" stroke="#a84020" stroke-width="1.5"/>
  <line x1="500" y1="125" x2="626" y2="205" stroke="#a84020" stroke-width="1.5"/>
  <line x1="500" y1="125" x2="668" y2="205" stroke="#a84020" stroke-width="1.5"/>

  <!-- Center flat parapet with tile cap -->
  <rect x="295" y="118" width="210" height="20" fill="url(#stucco)"/>
  <rect x="295" y="112" width="210" height="12" fill="#C2512A"/>
  <!-- Decorative dentils -->
  <rect x="300" y="120" width="14" height="18" fill="#D4A870"/>
  <rect x="322" y="120" width="14" height="18" fill="#D4A870"/>
  <rect x="344" y="120" width="14" height="18" fill="#D4A870"/>
  <rect x="366" y="120" width="14" height="18" fill="#D4A870"/>
  <rect x="388" y="120" width="14" height="18" fill="#D4A870"/>
  <rect x="410" y="120" width="14" height="18" fill="#D4A870"/>
  <rect x="432" y="120" width="14" height="18" fill="#D4A870"/>
  <rect x="454" y="120" width="14" height="18" fill="#D4A870"/>
  <rect x="476" y="120" width="14" height="18" fill="#D4A870"/>

  <!-- Chimney with tile cap -->
  <rect x="168" y="148" width="42" height="62" fill="#E0C090"/>
  <rect x="163" y="142" width="52" height="12" fill="#C2512A"/>

  <!-- Windows - left side arched -->
  <rect x="110" y="238" width="58" height="80" fill="#5a8fb8" rx="29 29 0 0" opacity="0.8"/>
  <rect x="108" y="236" width="62" height="84" fill="none" stroke="#D4A870" stroke-width="4" rx="31 31 0 0"/>
  <!-- Wrought iron grille -->
  <line x1="139" y1="236" x2="139" y2="320" stroke="#2a2a2a" stroke-width="2"/>
  <line x1="108" y1="275" x2="170" y2="275" stroke="#2a2a2a" stroke-width="2"/>
  <line x1="118" y1="255" x2="118" y2="320" stroke="#2a2a2a" stroke-width="1.5"/>
  <line x1="160" y1="255" x2="160" y2="320" stroke="#2a2a2a" stroke-width="1.5"/>

  <rect x="188" y="238" width="58" height="80" fill="#5a8fb8" rx="29 29 0 0" opacity="0.8"/>
  <rect x="186" y="236" width="62" height="84" fill="none" stroke="#D4A870" stroke-width="4" rx="31 31 0 0"/>
  <line x1="217" y1="236" x2="217" y2="320" stroke="#2a2a2a" stroke-width="2"/>
  <line x1="186" y1="275" x2="248" y2="275" stroke="#2a2a2a" stroke-width="2"/>
  <line x1="196" y1="255" x2="196" y2="320" stroke="#2a2a2a" stroke-width="1.5"/>
  <line x1="238" y1="255" x2="238" y2="320" stroke="#2a2a2a" stroke-width="1.5"/>

  <!-- Windows - right side arched -->
  <rect x="554" y="238" width="58" height="80" fill="#5a8fb8" rx="29 29 0 0" opacity="0.8"/>
  <rect x="552" y="236" width="62" height="84" fill="none" stroke="#D4A870" stroke-width="4" rx="31 31 0 0"/>
  <line x1="583" y1="236" x2="583" y2="320" stroke="#2a2a2a" stroke-width="2"/>
  <line x1="552" y1="275" x2="614" y2="275" stroke="#2a2a2a" stroke-width="2"/>
  <line x1="562" y1="255" x2="562" y2="320" stroke="#2a2a2a" stroke-width="1.5"/>
  <line x1="604" y1="255" x2="604" y2="320" stroke="#2a2a2a" stroke-width="1.5"/>

  <rect x="632" y="238" width="58" height="80" fill="#5a8fb8" rx="29 29 0 0" opacity="0.8"/>
  <rect x="630" y="236" width="62" height="84" fill="none" stroke="#D4A870" stroke-width="4" rx="31 31 0 0"/>
  <line x1="661" y1="236" x2="661" y2="320" stroke="#2a2a2a" stroke-width="2"/>
  <line x1="630" y1="275" x2="692" y2="275" stroke="#2a2a2a" stroke-width="2"/>
  <line x1="640" y1="255" x2="640" y2="320" stroke="#2a2a2a" stroke-width="1.5"/>
  <line x1="682" y1="255" x2="682" y2="320" stroke="#2a2a2a" stroke-width="1.5"/>

  <!-- Balcony over garage area -->
  <rect x="90" y="330" width="240" height="8" fill="#C2512A"/>
  <!-- Balcony rail -->
  <rect x="90" y="335" width="240" height="4" fill="#D4A870"/>

  <!-- Garage door - left -->
  <rect x="90" y="340" width="240" height="65" fill="#D4B87A" rx="2"/>
  <!-- Garage door panels -->
  <line x1="90" y1="362" x2="330" y2="362" stroke="#c4a86a" stroke-width="1.5"/>
  <line x1="90" y1="382" x2="330" y2="382" stroke="#c4a86a" stroke-width="1.5"/>
  <line x1="90" y1="402" x2="330" y2="402" stroke="#c4a86a" stroke-width="1.5"/>
  <line x1="210" y1="340" x2="210" y2="405" stroke="#c4a86a" stroke-width="1.5"/>
  <circle cx="150" cy="380" r="4" fill="#9a8050"/>
  <circle cx="270" cy="380" r="4" fill="#9a8050"/>

  <!-- Steps to front door -->
  <rect x="330" y="398" width="140" height="10" fill="#D4A870"/>
  <rect x="338" y="388" width="124" height="12" fill="#E0B880"/>

  <!-- Palm trees -->
  <rect x="55" y="310" width="10" height="95" fill="#8B6B4A" style="transform: rotate(-3deg); transform-origin: 60px 405px"/>
  <!-- Palm fronds -->
  <ellipse cx="60" cy="308" rx="4" ry="35" fill="#4aaa30" transform="rotate(-60,60,308)"/>
  <ellipse cx="60" cy="308" rx="4" ry="35" fill="#3a9a28" transform="rotate(-30,60,308)"/>
  <ellipse cx="60" cy="308" rx="4" ry="35" fill="#4aaa30" transform="rotate(0,60,308)"/>
  <ellipse cx="60" cy="308" rx="4" ry="35" fill="#3a9a28" transform="rotate(30,60,308)"/>
  <ellipse cx="60" cy="308" rx="4" ry="35" fill="#4aaa30" transform="rotate(60,60,308)"/>
  <ellipse cx="60" cy="308" rx="4" ry="35" fill="#3a9a28" transform="rotate(90,60,308)"/>

  <rect x="745" y="305" width="10" height="100" fill="#8B6B4A" style="transform: rotate(4deg); transform-origin: 750px 405px"/>
  <ellipse cx="750" cy="303" rx="4" ry="35" fill="#4aaa30" transform="rotate(-60,750,303)"/>
  <ellipse cx="750" cy="303" rx="4" ry="35" fill="#3a9a28" transform="rotate(-30,750,303)"/>
  <ellipse cx="750" cy="303" rx="4" ry="35" fill="#4aaa30" transform="rotate(0,750,303)"/>
  <ellipse cx="750" cy="303" rx="4" ry="35" fill="#3a9a28" transform="rotate(30,750,303)"/>
  <ellipse cx="750" cy="303" rx="4" ry="35" fill="#4aaa30" transform="rotate(60,750,303)"/>
  <ellipse cx="750" cy="303" rx="4" ry="35" fill="#3a9a28" transform="rotate(90,750,303)"/>

  <!-- Fountain -->
  <ellipse cx="400" cy="430" rx="35" ry="15" fill="#4a90aa" opacity="0.7"/>
  <ellipse cx="400" cy="428" rx="30" ry="12" fill="#5aaabb" opacity="0.6"/>
  <rect x="396" y="410" width="8" height="20" fill="#c8b090"/>
  <ellipse cx="400" cy="408" rx="10" ry="5" fill="#c8b090"/>

  <!-- Label -->
  <rect x="0" y="490" width="800" height="43" fill="rgba(100,50,0,0.65)"/>
  <text x="400" y="518" font-family="Georgia, serif" font-size="18" fill="white" text-anchor="middle" font-weight="bold">Mediterranean Estate · 5 Bed · 3.5 Bath · 3-Car Garage</text>
</svg>
