<svg xmlns="http://www.w3.org/2000/svg" viewBox="0 0 800 533" width="800" height="533">
  <defs>
    <linearGradient id="sky3" x1="0" y1="0" x2="0" y2="1">
      <stop offset="0%" stop-color="#FDB97D"/>
      <stop offset="40%" stop-color="#F7CAA0"/>
      <stop offset="100%" stop-color="#E8E4D0"/>
    </linearGradient>
    <linearGradient id="lawn3" x1="0" y1="0" x2="0" y2="1">
      <stop offset="0%" stop-color="#6aaa40"/>
      <stop offset="100%" stop-color="#4a8a28"/>
    </linearGradient>
  </defs>

  <!-- Sunset sky -->
  <rect width="800" height="533" fill="url(#sky3)"/>

  <!-- Sun setting -->
  <circle cx="680" cy="200" r="60" fill="#FF8C00" opacity="0.7"/>
  <circle cx="680" cy="200" r="45" fill="#FFA500" opacity="0.8"/>

  <!-- Silhouette trees far bg -->
  <rect x="0" y="320" width="800" height="80" fill="#5a9e3a" opacity="0.3"/>

  <!-- Ground -->
  <rect x="0" y="395" width="800" height="138" fill="url(#lawn3)"/>

  <!-- Stone path -->
  <ellipse cx="380" cy="440" rx="28" ry="14" fill="#c8bfaa"/>
  <ellipse cx="390" cy="470" rx="25" ry="12" fill="#bfb6a0"/>
  <ellipse cx="375" cy="498" rx="30" ry="13" fill="#c8bfaa"/>
  <ellipse cx="385" cy="520" rx="28" ry="11" fill="#bfb6a0"/>
  <ellipse cx="395" cy="412" rx="22" ry="10" fill="#c8bfaa"/>

  <!-- Main house body -->
  <rect x="130" y="255" width="540" height="145" fill="#8B6B4A"/>

  <!-- Horizontal board siding effect -->
  <line x1="130" y1="275" x2="670" y2="275" stroke="#7a5c3c" stroke-width="2"/>
  <line x1="130" y1="295" x2="670" y2="295" stroke="#7a5c3c" stroke-width="2"/>
  <line x1="130" y1="315" x2="670" y2="315" stroke="#7a5c3c" stroke-width="2"/>
  <line x1="130" y1="335" x2="670" y2="335" stroke="#7a5c3c" stroke-width="2"/>
  <line x1="130" y1="355" x2="670" y2="355" stroke="#7a5c3c" stroke-width="2"/>
  <line x1="130" y1="375" x2="670" y2="375" stroke="#7a5c3c" stroke-width="2"/>

  <!-- Stone foundation -->
  <rect x="130" y="370" width="540" height="30" fill="#9a8a78"/>
  <rect x="130" y="370" width="540" height="30" fill="none" stroke="#7a6a58" stroke-width="0"/>
  <!-- Stone pattern -->
  <line x1="200" y1="370" x2="200" y2="400" stroke="#7a6a58" stroke-width="1.5"/>
  <line x1="290" y1="370" x2="290" y2="400" stroke="#7a6a58" stroke-width="1.5"/>
  <line x1="380" y1="370" x2="380" y2="400" stroke="#7a6a58" stroke-width="1.5"/>
  <line x1="470" y1="370" x2="470" y2="400" stroke="#7a6a58" stroke-width="1.5"/>
  <line x1="560" y1="370" x2="560" y2="400" stroke="#7a6a58" stroke-width="1.5"/>
  <line x1="130" y1="385" x2="670" y2="385" stroke="#7a6a58" stroke-width="1.5"/>

  <!-- Main steep roof -->
  <polygon points="90,260 400,90 710,260" fill="#4a3328"/>
  <polygon points="90,260 400,90 710,260 710,248 400,78 90,248" fill="#5a4038"/>

  <!-- Roof lines detail -->
  <line x1="245" y1="175" x2="400" y2="90" stroke="#3a2520" stroke-width="1.5"/>
  <line x1="400" y1="90" x2="555" y2="175" stroke="#3a2520" stroke-width="1.5"/>

  <!-- Gable trim (decorative craftsman) -->
  <polygon points="280,182 400,108 520,182 520,170 400,98 280,170" fill="#6a4a38" opacity="0.7"/>

  <!-- Chimney -->
  <rect x="195" y="140" width="50" height="90" fill="#9a7a68"/>
  <rect x="190" y="133" width="60" height="14" fill="#7a5a48"/>
  <!-- Stone chimney detail -->
  <line x1="195" y1="160" x2="245" y2="160" stroke="#7a5a48" stroke-width="1.5"/>
  <line x1="195" y1="185" x2="245" y2="185" stroke="#7a5a48" stroke-width="1.5"/>
  <line x1="220" y1="133" x2="220" y2="230" stroke="#7a5a48" stroke-width="1.5"/>

  <!-- Front porch (craftsman hallmark) -->
  <rect x="210" y="290" width="380" height="110" fill="#7a5c40" opacity="0.5"/>
  <rect x="210" y="285" width="380" height="10" fill="#5a3a28"/>

  <!-- Porch columns (square craftsman style) -->
  <rect x="218" y="290" width="18" height="110" fill="#D4B896"/>
  <rect x="218" y="285" width="18" height="8" fill="#b89a78"/>
  <!-- Column base/cap pedestals -->
  <rect x="213" y="290" width="28" height="30" fill="#c4a882"/>
  <rect x="213" y="392" width="28" height="8" fill="#c4a882"/>

  <rect x="564" y="290" width="18" height="110" fill="#D4B896"/>
  <rect x="564" y="285" width="18" height="8" fill="#b89a78"/>
  <rect x="559" y="290" width="28" height="30" fill="#c4a882"/>
  <rect x="559" y="392" width="28" height="8" fill="#c4a882"/>

  <!-- Center columns -->
  <rect x="363" y="290" width="18" height="110" fill="#D4B896"/>
  <rect x="358" y="290" width="28" height="30" fill="#c4a882"/>

  <!-- Porch railing -->
  <rect x="236" y="355" width="127" height="6" fill="#c4a882"/>
  <rect x="381" y="355" width="183" height="6" fill="#c4a882"/>
  <!-- Balusters -->
  <rect x="244" y="360" width="4" height="40" fill="#c4a882"/>
  <rect x="256" y="360" width="4" height="40" fill="#c4a882"/>
  <rect x="268" y="360" width="4" height="40" fill="#c4a882"/>
  <rect x="280" y="360" width="4" height="40" fill="#c4a882"/>
  <rect x="292" y="360" width="4" height="40" fill="#c4a882"/>
  <rect x="304" y="360" width="4" height="40" fill="#c4a882"/>
  <rect x="316" y="360" width="4" height="40" fill="#c4a882"/>
  <rect x="328" y="360" width="4" height="40" fill="#c4a882"/>
  <rect x="340" y="360" width="4" height="40" fill="#c4a882"/>
  <rect x="352" y="360" width="4" height="40" fill="#c4a882"/>
  <rect x="390" y="360" width="4" height="40" fill="#c4a882"/>
  <rect x="403" y="360" width="4" height="40" fill="#c4a882"/>
  <rect x="416" y="360" width="4" height="40" fill="#c4a882"/>
  <rect x="429" y="360" width="4" height="40" fill="#c4a882"/>
  <rect x="442" y="360" width="4" height="40" fill="#c4a882"/>
  <rect x="455" y="360" width="4" height="40" fill="#c4a882"/>
  <rect x="468" y="360" width="4" height="40" fill="#c4a882"/>
  <rect x="481" y="360" width="4" height="40" fill="#c4a882"/>
  <rect x="494" y="360" width="4" height="40" fill="#c4a882"/>
  <rect x="507" y="360" width="4" height="40" fill="#c4a882"/>
  <rect x="520" y="360" width="4" height="40" fill="#c4a882"/>
  <rect x="533" y="360" width="4" height="40" fill="#c4a882"/>
  <rect x="546" y="360" width="4" height="40" fill="#c4a882"/>
  <rect x="559" y="360" width="4" height="40" fill="#c4a882"/>

  <!-- Front door -->
  <rect x="360" y="305" width="72" height="90" fill="#3a2218" rx="2"/>
  <!-- Door panels -->
  <rect x="366" y="311" width="26" height="28" fill="#4a2e22" rx="1"/>
  <rect x="398" y="311" width="26" height="28" fill="#4a2e22" rx="1"/>
  <rect x="366" y="346" width="58" height="40" fill="#4a2e22" rx="1"/>
  <circle cx="434" cy="368" r="4" fill="#D4AF37"/>
  <!-- Door sidelights -->
  <rect x="343" y="305" width="18" height="90" fill="#6b8fa8" opacity="0.7"/>
  <rect x="431" y="305" width="18" height="90" fill="#6b8fa8" opacity="0.7"/>

  <!-- Windows with craftsman character -->
  <!-- Left window group -->
  <rect x="145" y="268" width="55" height="65" fill="#7aa8c8" rx="1" opacity="0.85"/>
  <rect x="208" y="268" width="55" height="65" fill="#7aa8c8" rx="1" opacity="0.85"/>
  <rect x="143" y="265" width="59" height="69" fill="none" stroke="#5a4038" stroke-width="3"/>
  <rect x="206" y="265" width="59" height="69" fill="none" stroke="#5a4038" stroke-width="3"/>
  <!-- Window dividers (craftsman upper smaller panes) -->
  <line x1="143" y1="292" x2="202" y2="292" stroke="#5a4038" stroke-width="2"/>
  <line x1="172" y1="265" x2="172" y2="292" stroke="#5a4038" stroke-width="2"/>
  <line x1="155" y1="265" x2="155" y2="292" stroke="#5a4038" stroke-width="1.5"/>
  <line x1="189" y1="265" x2="189" y2="292" stroke="#5a4038" stroke-width="1.5"/>
  <line x1="206" y1="292" x2="265" y2="292" stroke="#5a4038" stroke-width="2"/>
  <line x1="235" y1="265" x2="235" y2="292" stroke="#5a4038" stroke-width="2"/>
  <line x1="218" y1="265" x2="218" y2="292" stroke="#5a4038" stroke-width="1.5"/>
  <line x1="252" y1="265" x2="252" y2="292" stroke="#5a4038" stroke-width="1.5"/>

  <!-- Right window group -->
  <rect x="542" y="268" width="55" height="65" fill="#7aa8c8" rx="1" opacity="0.85"/>
  <rect x="605" y="268" width="55" height="65" fill="#7aa8c8" rx="1" opacity="0.85"/>
  <rect x="540" y="265" width="59" height="69" fill="none" stroke="#5a4038" stroke-width="3"/>
  <rect x="603" y="265" width="59" height="69" fill="none" stroke="#5a4038" stroke-width="3"/>
  <line x1="540" y1="292" x2="599" y2="292" stroke="#5a4038" stroke-width="2"/>
  <line x1="569" y1="265" x2="569" y2="292" stroke="#5a4038" stroke-width="2"/>
  <line x1="552" y1="265" x2="552" y2="292" stroke="#5a4038" stroke-width="1.5"/>
  <line x1="586" y1="265" x2="586" y2="292" stroke="#5a4038" stroke-width="1.5"/>
  <line x1="603" y1="292" x2="662" y2="292" stroke="#5a4038" stroke-width="2"/>
  <line x1="632" y1="265" x2="632" y2="292" stroke="#5a4038" stroke-width="2"/>
  <line x1="615" y1="265" x2="615" y2="292" stroke="#5a4038" stroke-width="1.5"/>
  <line x1="649" y1="265" x2="649" y2="292" stroke="#5a4038" stroke-width="1.5"/>

  <!-- Porch steps -->
  <rect x="310" y="398" width="180" height="10" fill="#c4a882"/>
  <rect x="325" y="388" width="150" height="12" fill="#d4b892"/>

  <!-- Flower boxes under windows -->
  <rect x="143" y="332" width="122" height="10" fill="#8a6a48"/>
  <ellipse cx="155" cy="328" rx="6" ry="7" fill="#e8505a"/>
  <ellipse cx="170" cy="325" rx="5" ry="8" fill="#5a9e30"/>
  <ellipse cx="183" cy="327" rx="6" ry="6" fill="#e86050"/>
  <ellipse cx="197" cy="324" rx="5" ry="8" fill="#4a8e28"/>
  <ellipse cx="210" cy="328" rx="6" ry="7" fill="#e8405a"/>
  <ellipse cx="225" cy="325" rx="5" ry="8" fill="#5a9e30"/>
  <ellipse cx="238" cy="327" rx="6" ry="6" fill="#e86050"/>
  <ellipse cx="251" cy="324" rx="5" ry="8" fill="#4a8e28"/>

  <rect x="540" y="332" width="122" height="10" fill="#8a6a48"/>
  <ellipse cx="552" cy="328" rx="6" ry="7" fill="#e8505a"/>
  <ellipse cx="566" cy="325" rx="5" ry="8" fill="#5a9e30"/>
  <ellipse cx="579" cy="327" rx="6" ry="6" fill="#e86050"/>
  <ellipse cx="593" cy="324" rx="5" ry="8" fill="#4a8e28"/>
  <ellipse cx="606" cy="328" rx="6" ry="7" fill="#e8505a"/>
  <ellipse cx="619" cy="325" rx="5" ry="8" fill="#5a9e30"/>
  <ellipse cx="632" cy="327" rx="6" ry="6" fill="#e86050"/>
  <ellipse cx="645" cy="324" rx="5" ry="8" fill="#4a8e28"/>

  <!-- Mature tree left -->
  <rect x="55" y="280" width="16" height="120" fill="#6a4a2a"/>
  <ellipse cx="63" cy="265" rx="55" ry="65" fill="#5a8a30"/>
  <ellipse cx="48" cy="255" rx="38" ry="48" fill="#6a9a38"/>
  <ellipse cx="78" cy="260" rx="35" ry="44" fill="#4a7a28"/>

  <!-- Bush right -->
  <ellipse cx="710" cy="400" rx="45" ry="28" fill="#4a8a28"/>
  <ellipse cx="690" cy="395" rx="32" ry="22" fill="#5a9a35"/>
  <ellipse cx="730" cy="398" rx="28" ry="20" fill="#3a7a22"/>

  <!-- Porch swing hint -->
  <line x1="252" y1="290" x2="260" y2="340" stroke="#8a6a48" stroke-width="1.5"/>
  <line x1="310" y1="290" x2="302" y2="340" stroke="#8a6a48" stroke-width="1.5"/>
  <rect x="258" y="338" width="46" height="6" fill="#a07848" rx="2"/>

  <!-- Label -->
  <rect x="0" y="490" width="800" height="43" fill="rgba(60,30,10,0.7)"/>
  <text x="400" y="518" font-family="Georgia, serif" font-size="18" fill="white" text-anchor="middle" font-weight="bold">Craftsman Bungalow · 3 Bed · 2 Bath · Wrap Porch</text>
</svg>
