<svg xmlns="http://www.w3.org/2000/svg" viewBox="0 0 800 533" width="800" height="533">
  <defs>
    <linearGradient id="sky5" x1="0" y1="0" x2="0" y2="1">
      <stop offset="0%" stop-color="#c9d8e8"/>
      <stop offset="100%" stop-color="#e8eef5"/>
    </linearGradient>
    <linearGradient id="brick1" x1="0" y1="0" x2="1" y2="0">
      <stop offset="0%" stop-color="#b85a3a"/>
      <stop offset="100%" stop-color="#a04a30"/>
    </linearGradient>
    <linearGradient id="brick2" x1="0" y1="0" x2="1" y2="0">
      <stop offset="0%" stop-color="#8a4a2e"/>
      <stop offset="100%" stop-color="#7a3e26"/>
    </linearGradient>
    <linearGradient id="lawn5" x1="0" y1="0" x2="0" y2="1">
      <stop offset="0%" stop-color="#5aaa35"/>
      <stop offset="100%" stop-color="#3a8a20"/>
    </linearGradient>
  </defs>

  <!-- Overcast sky -->
  <rect width="800" height="533" fill="url(#sky5)"/>

  <!-- Soft clouds -->
  <ellipse cx="200" cy="70" rx="100" ry="35" fill="white" opacity="0.9"/>
  <ellipse cx="260" cy="55" rx="80" ry="30" fill="white" opacity="0.9"/>
  <ellipse cx="150" cy="62" rx="70" ry="28" fill="white" opacity="0.9"/>
  <ellipse cx="580" cy="80" rx="90" ry="32" fill="white" opacity="0.85"/>
  <ellipse cx="640" cy="65" rx="72" ry="28" fill="white" opacity="0.85"/>
  <ellipse cx="530" cy="72" rx="60" ry="24" fill="white" opacity="0.85"/>

  <!-- Ground -->
  <rect x="0" y="405" width="800" height="128" fill="url(#lawn5)"/>

  <!-- Sidewalk -->
  <rect x="0" y="400" width="800" height="12" fill="#c8c0b0"/>
  <!-- Sidewalk segments -->
  <line x1="160" y1="400" x2="160" y2="412" stroke="#b8b0a0" stroke-width="1.5"/>
  <line x1="320" y1="400" x2="320" y2="412" stroke="#b8b0a0" stroke-width="1.5"/>
  <line x1="480" y1="400" x2="480" y2="412" stroke="#b8b0a0" stroke-width="1.5"/>
  <line x1="640" y1="400" x2="640" y2="412" stroke="#b8b0a0" stroke-width="1.5"/>

  <!-- Street -->
  <rect x="0" y="510" width="800" height="23" fill="#555"/>
  <line x1="0" y1="520" x2="800" y2="520" stroke="#f0c020" stroke-width="3" stroke-dasharray="40,30"/>

  <!-- === UNIT 1 (left) === -->
  <rect x="50" y="185" width="200" height="220" fill="url(#brick1)"/>
  <!-- Brick mortar lines -->
  <line x1="50" y1="205" x2="250" y2="205" stroke="#c87060" stroke-width="1"/>
  <line x1="50" y1="225" x2="250" y2="225" stroke="#c87060" stroke-width="1"/>
  <line x1="50" y1="245" x2="250" y2="245" stroke="#c87060" stroke-width="1"/>
  <line x1="50" y1="265" x2="250" y2="265" stroke="#c87060" stroke-width="1"/>
  <line x1="50" y1="285" x2="250" y2="285" stroke="#c87060" stroke-width="1"/>
  <line x1="50" y1="305" x2="250" y2="305" stroke="#c87060" stroke-width="1"/>
  <line x1="50" y1="325" x2="250" y2="325" stroke="#c87060" stroke-width="1"/>
  <line x1="50" y1="345" x2="250" y2="345" stroke="#c87060" stroke-width="1"/>
  <line x1="50" y1="365" x2="250" y2="365" stroke="#c87060" stroke-width="1"/>
  <line x1="50" y1="385" x2="250" y2="385" stroke="#c87060" stroke-width="1"/>
  <!-- Vertical brick joints offset -->
  <line x1="150" y1="205" x2="150" y2="225" stroke="#c87060" stroke-width="0.8"/>
  <line x1="100" y1="225" x2="100" y2="245" stroke="#c87060" stroke-width="0.8"/>
  <line x1="200" y1="225" x2="200" y2="245" stroke="#c87060" stroke-width="0.8"/>

  <!-- Unit 1 roof -->
  <polygon points="40,190 150,130 260,190" fill="#3a3a4a"/>
  <rect x="40" y="182" width="220" height="12" fill="#2a2a3a"/>
  <!-- Chimney -->
  <rect x="190" y="145" width="28" height="48" fill="#555"/>
  <rect x="186" y="140" width="36" height="10" fill="#3a3a4a"/>

  <!-- Unit 1 windows - 2nd floor -->
  <rect x="78" y="215" width="52" height="62" fill="#9ab8d0" rx="1"/>
  <rect x="76" y="213" width="56" height="66" fill="none" stroke="#2a2a3a" stroke-width="3"/>
  <line x1="104" y1="213" x2="104" y2="279" stroke="#2a2a3a" stroke-width="2"/>
  <line x1="76" y1="244" x2="132" y2="244" stroke="#2a2a3a" stroke-width="2"/>
  <!-- Curtain hint -->
  <rect x="78" y="215" width="12" height="27" fill="#f0e8d8" opacity="0.6"/>
  <rect x="118" y="215" width="12" height="27" fill="#f0e8d8" opacity="0.6"/>

  <rect x="170" y="215" width="52" height="62" fill="#9ab8d0" rx="1"/>
  <rect x="168" y="213" width="56" height="66" fill="none" stroke="#2a2a3a" stroke-width="3"/>
  <line x1="196" y1="213" x2="196" y2="279" stroke="#2a2a3a" stroke-width="2"/>
  <line x1="168" y1="244" x2="224" y2="244" stroke="#2a2a3a" stroke-width="2"/>
  <rect x="170" y="215" width="12" height="27" fill="#f0e8d8" opacity="0.6"/>
  <rect x="210" y="215" width="12" height="27" fill="#f0e8d8" opacity="0.6"/>

  <!-- Unit 1 door -->
  <rect x="116" y="322" width="68" height="83" fill="#2a3a4a" rx="2"/>
  <rect x="120" y="326" width="26" height="36" fill="#3a4a5a" rx="1"/>
  <rect x="154" y="326" width="26" height="36" fill="#3a4a5a" rx="1"/>
  <rect x="120" y="370" width="60" height="28" fill="#3a4a5a" rx="1"/>
  <circle cx="175" cy="386" r="4" fill="#D4AF37"/>
  <!-- Transom -->
  <rect x="116" y="310" width="68" height="14" fill="#9ab8d0" rx="1"/>

  <!-- Unit 1 stoop -->
  <rect x="100" y="403" width="100" height="6" fill="#b8b0a0"/>
  <rect x="108" y="398" width="84" height="7" fill="#c8c0b0"/>

  <!-- Unit 1 window box -->
  <rect x="76" y="278" width="56" height="8" fill="#5a3a28"/>
  <ellipse cx="88" cy="275" rx="5" ry="6" fill="#e85050"/>
  <ellipse cx="100" cy="273" rx="4" ry="7" fill="#5a9e30"/>
  <ellipse cx="112" cy="275" rx="5" ry="6" fill="#e86050"/>
  <ellipse cx="124" cy="273" rx="4" ry="7" fill="#4a8e28"/>

  <!-- === UNIT 2 (center - slightly taller, highlighted) === -->
  <rect x="250" y="165" width="200" height="240" fill="#c87060"/>
  <!-- Quoins (corner stones) -->
  <rect x="250" y="165" width="18" height="12" fill="#d88070"/>
  <rect x="250" y="185" width="18" height="12" fill="#d88070"/>
  <rect x="250" y="205" width="18" height="12" fill="#d88070"/>
  <rect x="250" y="225" width="18" height="12" fill="#d88070"/>
  <rect x="250" y="245" width="18" height="12" fill="#d88070"/>
  <rect x="432" y="165" width="18" height="12" fill="#d88070"/>
  <rect x="432" y="185" width="18" height="12" fill="#d88070"/>
  <rect x="432" y="205" width="18" height="12" fill="#d88070"/>
  <rect x="432" y="225" width="18" height="12" fill="#d88070"/>
  <rect x="432" y="245" width="18" height="12" fill="#d88070"/>
  <!-- Brick courses -->
  <line x1="250" y1="182" x2="450" y2="182" stroke="#b86050" stroke-width="1"/>
  <line x1="250" y1="200" x2="450" y2="200" stroke="#b86050" stroke-width="1"/>
  <line x1="250" y1="218" x2="450" y2="218" stroke="#b86050" stroke-width="1"/>
  <line x1="250" y1="236" x2="450" y2="236" stroke="#b86050" stroke-width="1"/>
  <line x1="250" y1="254" x2="450" y2="254" stroke="#b86050" stroke-width="1"/>
  <line x1="250" y1="272" x2="450" y2="272" stroke="#b86050" stroke-width="1"/>
  <line x1="250" y1="290" x2="450" y2="290" stroke="#b86050" stroke-width="1"/>
  <line x1="250" y1="308" x2="450" y2="308" stroke="#b86050" stroke-width="1"/>
  <line x1="250" y1="326" x2="450" y2="326" stroke="#b86050" stroke-width="1"/>
  <line x1="250" y1="344" x2="450" y2="344" stroke="#b86050" stroke-width="1"/>
  <line x1="250" y1="362" x2="450" y2="362" stroke="#b86050" stroke-width="1"/>
  <line x1="250" y1="380" x2="450" y2="380" stroke="#b86050" stroke-width="1"/>

  <!-- Unit 2 roof with decorative parapet -->
  <polygon points="235,170 350,105 465,170" fill="#3a3a4a"/>
  <rect x="235" y="162" width="230" height="12" fill="#2a2a3a"/>
  <!-- Parapet battlements -->
  <rect x="240" y="150" width="20" height="18" fill="#2a2a3a"/>
  <rect x="268" y="150" width="20" height="18" fill="#2a2a3a"/>
  <rect x="296" y="150" width="20" height="18" fill="#2a2a3a"/>
  <rect x="324" y="150" width="20" height="18" fill="#2a2a3a"/>
  <rect x="352" y="150" width="20" height="18" fill="#2a2a3a"/>
  <rect x="380" y="150" width="20" height="18" fill="#2a2a3a"/>
  <rect x="408" y="150" width="20" height="18" fill="#2a2a3a"/>
  <rect x="436" y="150" width="20" height="18" fill="#2a2a3a"/>

  <!-- Unit 2 windows - tall elegant -->
  <rect x="272" y="188" width="60" height="80" fill="#9ab8d0" rx="2 2 0 0"/>
  <rect x="270" y="186" width="64" height="84" fill="none" stroke="#2a2a3a" stroke-width="3"/>
  <path d="M272,222 Q302,210 332,222" fill="#8ab0cc" opacity="0.5"/>
  <line x1="302" y1="186" x2="302" y2="270" stroke="#2a2a3a" stroke-width="2"/>
  <line x1="270" y1="235" x2="334" y2="235" stroke="#2a2a3a" stroke-width="2"/>

  <rect x="368" y="188" width="60" height="80" fill="#9ab8d0" rx="2 2 0 0"/>
  <rect x="366" y="186" width="64" height="84" fill="none" stroke="#2a2a3a" stroke-width="3"/>
  <path d="M368,222 Q398,210 428,222" fill="#8ab0cc" opacity="0.5"/>
  <line x1="398" y1="186" x2="398" y2="270" stroke="#2a2a3a" stroke-width="2"/>
  <line x1="366" y1="235" x2="430" y2="235" stroke="#2a2a3a" stroke-width="2"/>

  <!-- Bay window -->
  <polygon points="290,290 410,290 425,340 275,340" fill="#c07058"/>
  <line x1="290" y1="290" x2="275" y2="340" stroke="#b06048" stroke-width="1.5"/>
  <line x1="410" y1="290" x2="425" y2="340" stroke="#b06048" stroke-width="1.5"/>
  <rect x="290" y="292" width="40" height="46" fill="#9ab8d0" opacity="0.85"/>
  <rect x="340" y="292" width="40" height="46" fill="#9ab8d0" opacity="0.85"/>
  <rect x="378" y="292" width="30" height="46" fill="#9ab8d0" opacity="0.85" transform="skewX(-8)"/>
  <rect x="290" y="286" width="120" height="8" fill="#3a3a4a"/>

  <!-- Unit 2 door - grand -->
  <rect x="316" y="328" width="68" height="77" fill="#1a2a3a" rx="2"/>
  <rect x="319" y="331" width="26" height="32" fill="#2a3a4a" rx="1"/>
  <rect x="353" y="331" width="26" height="32" fill="#2a3a4a" rx="1"/>
  <rect x="319" y="371" width="60" height="27" fill="#2a3a4a" rx="1"/>
  <!-- Fanlight above door -->
  <rect x="316" y="316" width="68" height="14" fill="#9ab8d0" rx="4 4 0 0"/>
  <circle cx="350" cy="316" r="10" fill="#9ab8d0" opacity="0.6"/>
  <circle cx="369" cy="320" r="5" fill="#D4AF37"/>

  <!-- Unit 2 stoop - elevated -->
  <rect x="296" y="403" width="108" height="6" fill="#a8a098"/>
  <rect x="304" y="396" width="92" height="9" fill="#b8b0a0"/>
  <rect x="310" y="389" width="80" height="9" fill="#c8c0b0"/>

  <!-- === UNIT 3 (right) === -->
  <rect x="500" y="185" width="200" height="220" fill="url(#brick2)"/>
  <line x1="500" y1="205" x2="700" y2="205" stroke="#9a5840" stroke-width="1"/>
  <line x1="500" y1="225" x2="700" y2="225" stroke="#9a5840" stroke-width="1"/>
  <line x1="500" y1="245" x2="700" y2="245" stroke="#9a5840" stroke-width="1"/>
  <line x1="500" y1="265" x2="700" y2="265" stroke="#9a5840" stroke-width="1"/>
  <line x1="500" y1="285" x2="700" y2="285" stroke="#9a5840" stroke-width="1"/>
  <line x1="500" y1="305" x2="700" y2="305" stroke="#9a5840" stroke-width="1"/>
  <line x1="500" y1="325" x2="700" y2="325" stroke="#9a5840" stroke-width="1"/>
  <line x1="500" y1="345" x2="700" y2="345" stroke="#9a5840" stroke-width="1"/>
  <line x1="500" y1="365" x2="700" y2="365" stroke="#9a5840" stroke-width="1"/>
  <line x1="500" y1="385" x2="700" y2="385" stroke="#9a5840" stroke-width="1"/>

  <!-- Unit 3 roof -->
  <polygon points="490,190 600,130 710,190" fill="#3a3a4a"/>
  <rect x="490" y="182" width="220" height="12" fill="#2a2a3a"/>

  <!-- Unit 3 windows -->
  <rect x="528" y="215" width="52" height="62" fill="#9ab8d0" rx="1"/>
  <rect x="526" y="213" width="56" height="66" fill="none" stroke="#2a2a3a" stroke-width="3"/>
  <line x1="554" y1="213" x2="554" y2="279" stroke="#2a2a3a" stroke-width="2"/>
  <line x1="526" y1="244" x2="582" y2="244" stroke="#2a2a3a" stroke-width="2"/>

  <rect x="620" y="215" width="52" height="62" fill="#9ab8d0" rx="1"/>
  <rect x="618" y="213" width="56" height="66" fill="none" stroke="#2a2a3a" stroke-width="3"/>
  <line x1="646" y1="213" x2="646" y2="279" stroke="#2a2a3a" stroke-width="2"/>
  <line x1="618" y1="244" x2="674" y2="244" stroke="#2a2a3a" stroke-width="2"/>

  <!-- Unit 3 door -->
  <rect x="566" y="322" width="68" height="83" fill="#2a3a4a" rx="2"/>
  <rect x="570" y="326" width="26" height="36" fill="#3a4a5a" rx="1"/>
  <rect x="604" y="326" width="26" height="36" fill="#3a4a5a" rx="1"/>
  <rect x="570" y="370" width="60" height="28" fill="#3a4a5a" rx="1"/>
  <circle cx="625" cy="386" r="4" fill="#D4AF37"/>
  <rect x="566" y="310" width="68" height="14" fill="#9ab8d0" rx="1"/>

  <!-- Unit 3 stoop -->
  <rect x="550" y="403" width="100" height="6" fill="#b8b0a0"/>
  <rect x="558" y="397" width="84" height="8" fill="#c8c0b0"/>

  <!-- Lamppost (street) -->
  <rect x="216" y="350" width="6" height="58" fill="#4a4a5a"/>
  <rect x="209" y="347" width="20" height="6" fill="#5a5a6a"/>
  <circle cx="219" cy="344" r="8" fill="#FFE566" opacity="0.9"/>
  <polygon points="219,352 208,385 230,385" fill="#FFE566" opacity="0.15"/>

  <rect x="576" y="350" width="6" height="58" fill="#4a4a5a"/>
  <rect x="569" y="347" width="20" height="6" fill="#5a5a6a"/>
  <circle cx="579" cy="344" r="8" fill="#FFE566" opacity="0.9"/>
  <polygon points="579,352 568,385 590,385" fill="#FFE566" opacity="0.15"/>

  <!-- Street tree -->
  <rect x="453" y="330" width="10" height="78" fill="#7a5a38"/>
  <ellipse cx="458" cy="315" rx="42" ry="50" fill="#5a9a30"/>
  <ellipse cx="443" cy="308" rx="30" ry="38" fill="#6aaa38"/>
  <ellipse cx="472" cy="310" rx="28" ry="35" fill="#4a8a28"/>

  <!-- Label -->
  <rect x="0" y="490" width="800" height="43" fill="rgba(30,30,50,0.7)"/>
  <text x="400" y="518" font-family="Georgia, serif" font-size="18" fill="white" text-anchor="middle" font-weight="bold">Historic Brick Townhouse · 3 Bed · 2 Bath · Rooftop</text>
</svg>
